<svg width="268" height="446" viewBox="0 0 268 446" fill="none" xmlns="http://www.w3.org/2000/svg">
<path d="M144.247 83.2978C148.274 81.847 153.688 80.4852 156.958 80.3619C154.629 73.3708 150.087 58.3058 148.06 53.0924C147.294 54.0148 146.317 54.6664 145.193 55.083C141.749 56.3588 138.027 57.6999 134.143 59.172C135.402 64.5672 138.464 76.5253 140.643 81.1957C141.786 81.8187 142.987 82.5162 144.247 83.2978Z" fill="#D9D9D9"/>
<path d="M108.537 70.831L110.173 74.4104C113.712 74.3628 119.797 74.7103 124.449 75.2529L120.733 64.9132C116.774 66.6931 112.423 68.6094 108.537 70.831Z" fill="#D9D9D9"/>
<path d="M94.581 140.1C90.5135 140.631 85.7839 140.662 83.3031 139.915C86.0123 157.432 98.6284 194.107 127.42 200.666C150.258 205.731 155.695 219.212 157.663 225.631C173.195 276.271 205.008 380.126 208.008 390.422C211.758 403.293 220.174 422.567 241.859 415.665C263.544 408.762 272.315 409.499 258.362 381.719C247.199 359.494 205.008 265.215 185.308 220.853C181.963 213.32 173.246 204.011 183.056 184.29C192.866 164.57 186.202 146.604 170.334 110.688C169.308 112.338 168.059 113.863 167.006 114.964C164.63 117.832 160.289 120.792 156.217 123.137C161.973 144.674 150.8 135.918 145.886 128.078C141.088 130.024 137.286 131.167 131.935 132.667C134.189 152.767 124.751 143.065 119.75 135.702C115.887 136.556 112.081 137.304 108.445 137.953C110.924 159.355 102.222 148.031 97.5614 139.694C96.5354 139.839 95.5406 139.974 94.581 140.1Z" fill="#D9D9D9"/>
<path d="M63.1806 48.4355C59.9305 49.5981 53.0313 51.7477 51.9053 53.7448C54.6085 57.4924 57.3485 61.8737 59.8406 66.1731C61.9091 64.8206 66.7462 62.5098 69.0767 61.386C66.8767 57.1663 64.7528 52.6437 63.1806 48.4355Z" fill="#E1D9AB"/>
<path d="M75.3539 129.453C66.542 134.281 52.8707 147.039 62.5206 160.512C65.0113 164.137 71.0209 167.334 75.133 151.122C76.7032 147.66 80.2227 141.347 83.3031 139.915C77.4665 138.156 75.5524 133.563 75.3539 129.453Z" fill="#E1D9AB"/>
<path d="M166.672 104.206C139.512 120.617 100.091 133.74 83.8442 127.986C81.1605 127.035 78.1183 125.758 76.3756 124.776C76.1023 125.98 75.2821 127.965 75.3539 129.453C75.5524 133.563 77.4665 138.156 83.3031 139.915C85.7839 140.662 90.5135 140.631 94.581 140.1C95.5406 139.974 96.5354 139.839 97.5614 139.694C100.904 139.222 104.578 138.644 108.445 137.953C112.081 137.304 115.887 136.556 119.75 135.702C123.794 134.808 127.9 133.799 131.935 132.667C137.286 131.167 141.088 130.024 145.886 128.078C149.452 126.631 153.252 124.846 156.217 123.137C160.289 120.792 164.63 117.832 167.006 114.964C168.059 113.863 169.308 112.338 170.334 110.688C172.494 107.215 173.667 103.188 169.94 101.388C169.025 102.471 167.936 103.442 166.672 104.206Z" fill="#E1D9AB"/>
<path d="M97.0658 116.237C85.4438 118.405 74.7946 117.535 69.0094 115.694C68.0895 117.373 69.6786 121.005 76.3756 124.776C78.1183 125.758 81.1605 127.035 83.8442 127.986C100.091 133.74 139.512 120.617 166.672 104.206C167.936 103.442 169.025 102.471 169.94 101.388C172.807 97.9972 173.974 93.5096 173.516 90.8564C173.136 88.66 171.586 87.5736 169.617 86.9971C166.968 86.2218 163.941 86.0044 161.485 87.2619C160.21 87.9145 158.219 89.3818 152.754 93.1262C152.547 93.2674 152.337 93.4116 152.121 93.5589C139.736 102.026 117.591 112.41 97.0658 116.237Z" fill="#E1D9AB"/>
<path d="M137.559 85.7844C123.58 94.3292 82.2391 102.177 64.8602 104.58C58.0667 105.292 58.3682 112.307 69.0094 115.694C74.7946 117.535 85.4438 118.405 97.0658 116.237C117.591 112.41 139.736 102.026 152.121 93.5589C152.337 93.4116 152.547 93.2674 152.754 93.1262C161.596 87.0683 162.008 86.4776 162.693 84.7326C163.081 83.7473 163.416 81.9887 162.736 81.4328C161.278 80.2425 159.333 80.2723 156.958 80.3619C153.688 80.4852 148.274 81.847 144.247 83.2978C143.811 83.4547 143.326 83.6296 142.811 83.816C140.312 84.7212 139.025 85.0964 137.559 85.7844Z" fill="#E1D9AB"/>
<path d="M66.5809 78.6967C66.4538 78.9131 66.3214 79.1373 66.1851 79.3681C64.6363 81.9902 62.5843 85.4644 62.0939 88.0342C62.0915 88.0473 62.083 88.0598 62.0688 88.0718C61.5092 89.0076 60.794 101.296 64.8602 104.58C82.2391 102.177 123.58 94.3292 137.559 85.7844C120.943 86.1328 95.6454 84.4882 88.3161 86.2056C91.5086 83.1366 97.0229 78.2719 101.195 75.4175C103.594 73.7769 106.05 72.2531 108.537 70.831C112.423 68.6094 116.774 66.6931 120.733 64.9132L121.108 64.7445C125.296 62.8583 129.035 61.1246 133.032 59.5951C133.404 59.4528 133.774 59.3118 134.143 59.172C138.027 57.6999 141.749 56.3588 145.193 55.083C146.317 54.6664 147.294 54.0148 148.06 53.0924C162.126 36.1626 144.042 29.1953 134.645 27.7461C135.815 30.839 136.733 33.8829 137.339 36.2931C137.947 39.8122 134.316 43.0774 129.544 45.7244C128.284 46.4238 126.944 47.08 125.581 47.6863C121.842 49.3506 121.268 50.4947 118.374 51.2686C117.724 51.4545 113.304 52.7662 112.664 52.9599C109.28 53.9851 106.054 55.1172 102.994 56.3222C101.56 56.8868 100.162 57.4674 98.802 58.0606C94.3394 60.0063 90.122 62.3393 86.4858 64.4305C83.1006 66.3773 80.085 68.3335 77.4602 70.1995C76.6254 70.7929 75.8302 71.3772 75.0752 71.9491C71.1826 74.8979 68.2416 76.8437 66.5809 78.6967Z" fill="#E1D9AB"/>
<path d="M88.3161 86.2056C95.6454 84.4882 120.943 86.1328 137.559 85.7844C139.025 85.0964 140.312 84.7212 142.811 83.816C143.326 83.6296 143.811 83.4547 144.247 83.2978C142.987 82.5162 141.786 81.8187 140.643 81.1957C136.172 78.3634 131.351 76.9436 126.53 75.5237C125.883 75.4291 125.184 75.3386 124.449 75.2529C119.797 74.7103 113.712 74.3628 110.173 74.4104C106.842 74.4553 103.806 74.7757 101.195 75.4175C97.0229 78.2719 91.5086 83.1366 88.3161 86.2056Z" fill="#E1D9AB"/>
<path d="M56.0215 86.8802C53.0471 86.2281 50.8083 84.3943 49.4852 81.6516C44.4066 89.8897 43.687 106.798 64.8602 104.58C60.794 101.296 61.5092 89.0076 62.0688 88.0718C61.724 88.3635 59.7774 88.0296 56.4867 86.9999C56.3525 86.9579 56.1956 86.9184 56.0215 86.8802Z" fill="#E1D9AB"/>
<path d="M45.8621 74.1453C44.034 69.9592 42.0528 64.7277 40.657 60.646C33.6801 65.4357 32.8306 72.29 31.0027 75.8336C30.4633 76.8791 29.6972 77.91 28.8341 78.8759C25.3009 82.8295 19.4372 84.1258 16.0866 88.2354C15.3353 89.1569 14.9757 90.1463 15.345 91.1364C16.2924 93.6764 20.0506 94.8294 26.5473 94.1783C28.1226 94.0204 34.4423 92.7925 39.8011 85.5574C42.2283 82.2804 42.275 76.9232 45.8621 74.1453Z" fill="#E1D9AB"/>
<path d="M90.7093 35.3401C87.3685 36.218 79.5119 38.8533 75.4311 41.3612C78.0513 45.447 80.5361 50.3441 82.6228 54.9889C85.391 53.6092 91.8888 50.3675 95.1155 49.4493C93.3431 44.8831 91.6797 39.8651 90.7093 35.3401Z" fill="#E1D9AB"/>
<path d="M119.309 27.693L104.751 31.1105C106.828 35.0867 108.653 39.7605 110.108 44.1541C112.477 43.4442 118.739 41.0401 123.072 41.0121C121.615 36.8042 120.201 32.0685 119.309 27.693Z" fill="#E1D9AB"/>
<path fill-rule="evenodd" clip-rule="evenodd" d="M66.1851 79.3681C64.6363 81.9902 62.5843 85.4644 62.0939 88.0342C62.0869 88.0431 62.0785 88.0556 62.0688 88.0718C61.724 88.3635 59.7774 88.0296 56.4867 86.9999C50.6648 78.6167 41.6219 55.1606 38.7181 44.3265C38.9807 44.0347 39.3016 43.8199 39.6854 43.69C42.6677 42.6807 47.2315 47.2655 51.9053 53.7448C54.6085 57.4924 57.3485 61.8737 59.8406 66.1731C62.4774 70.722 64.8366 75.1792 66.5809 78.6967C66.4538 78.9131 66.3214 79.1373 66.1851 79.3681Z" fill="#D9D9D9"/>
<path d="M49.4852 81.6516C50.8083 84.3943 53.0471 86.2281 56.0215 86.8802C56.1956 86.9184 56.3525 86.9579 56.4867 86.9999C50.6648 78.6167 41.6219 55.1606 38.7181 44.3265C36.7475 46.5171 38.0596 53.0504 40.657 60.646C42.0528 64.7277 44.034 69.9592 45.8621 74.1453C47.1469 77.0873 48.2476 79.0863 49.4852 81.6516Z" fill="white"/>
<path fill-rule="evenodd" clip-rule="evenodd" d="M62.0154 32.9724C63.976 39.9715 69.8098 57.2157 77.4602 70.1995C80.085 68.3335 83.1006 66.3773 86.4858 64.4305C85.4852 61.7052 84.1623 58.4157 82.6228 54.9889C80.5361 50.3441 78.0513 45.447 75.4311 41.3612C71.3245 34.9577 66.8852 30.5468 63.1246 32.2226C62.6964 32.4134 62.328 32.6651 62.0154 32.9724Z" fill="#D9D9D9"/>
<path d="M69.0767 61.386C71.14 65.3434 73.2703 69.0343 75.0752 71.9491C75.8302 71.3772 76.6254 70.7929 77.4602 70.1995C69.8098 57.2157 63.976 39.9715 62.0154 32.9724C59.5011 35.4443 60.5947 41.5145 63.1806 48.4355C64.7528 52.6437 66.8767 57.1663 69.0767 61.386Z" fill="white"/>
<path fill-rule="evenodd" clip-rule="evenodd" d="M91.9729 22.0605C92.6427 27.896 95.7847 42.918 102.994 56.3222C106.054 55.1172 109.28 53.9851 112.664 52.9599C112.04 50.4293 111.173 47.3666 110.108 44.1541C108.653 39.7605 106.828 35.0867 104.751 31.1105C101.471 24.8322 97.5592 20.2933 93.4725 21.3436C92.8976 21.4914 92.3997 21.7336 91.9729 22.0605Z" fill="#D9D9D9"/>
<path d="M95.1155 49.4493C96.3579 52.6503 97.6538 55.6292 98.802 58.0606C100.162 57.4674 101.56 56.8868 102.994 56.3222C95.7847 42.918 92.6427 27.896 91.9729 22.0605C89.3533 24.0664 89.4051 29.2578 90.7093 35.3401C91.6797 39.8651 93.3431 44.8831 95.1155 49.4493Z" fill="white"/>
<path fill-rule="evenodd" clip-rule="evenodd" d="M119.772 14.0769C122.091 23.5837 127.292 43.2228 129.544 45.7244C134.316 43.0774 137.947 39.8122 137.339 36.2931C136.733 33.8829 135.815 30.839 134.645 27.7461C131.622 19.7552 126.921 11.4374 121.599 12.8772C120.847 13.0805 120.244 13.4914 119.772 14.0769Z" fill="#D9D9D9"/>
<path d="M123.072 41.0121C123.926 43.4776 124.795 45.7618 125.581 47.6863C126.944 47.08 128.284 46.4238 129.544 45.7244C127.292 43.2228 122.091 23.5837 119.772 14.0769C117.849 16.462 118.097 21.7446 119.309 27.693C120.201 32.0685 121.615 36.8042 123.072 41.0121Z" fill="white"/>
<path d="M103.288 71.7384L104.923 75.3178C108.463 75.2701 114.548 75.6176 119.2 76.1603L115.484 65.8206C111.525 67.6005 107.174 69.5167 103.288 71.7384Z" fill="#D9D9D9"/>
<path d="M65.379 78.9045C63.8078 81.5794 61.4256 85.446 60.8921 88.242M65.379 78.9045C67.0397 77.0515 69.8633 74.4307 73.7558 71.482M65.379 78.9045C63.6347 75.387 61.2755 70.9298 58.6388 66.3808M60.8921 88.242C60.885 88.2509 60.8766 88.2634 60.867 88.2795M60.8921 88.242C60.8896 88.255 60.8811 88.2676 60.867 88.2795M48.2833 81.8594V81.8594C49.6065 84.602 51.6181 87.0853 54.575 87.8131C57.5567 88.547 60.5591 88.54 60.867 88.2795M48.2833 81.8594C43.2048 90.0975 38.4377 107.705 59.6109 105.487M48.2833 81.8594C47.0457 79.2941 45.945 77.2951 44.6602 74.3531M59.6109 105.487C76.9899 103.084 118.331 95.2365 132.31 86.6918M59.6109 105.487C52.8175 106.199 53.119 113.214 63.7602 116.601M59.6109 105.487C55.5447 102.203 60.3073 89.2154 60.867 88.2795M73.7558 71.482C76.8849 69.1116 80.7047 66.5292 85.1665 63.9633M73.7558 71.482C71.951 68.5671 69.8207 64.8762 67.7574 60.9188M85.1665 63.9633C88.8027 61.8721 92.8652 59.7918 97.3278 57.8461M85.1665 63.9633C84.1658 61.2381 82.843 57.9485 81.3035 54.5217M97.3278 57.8461C101.591 55.9871 106.22 54.251 111.19 52.7454M97.3278 57.8461C96.1796 55.4147 94.8837 52.4358 93.6413 49.2348M111.19 52.7454C111.829 52.5517 112.475 52.3618 113.125 52.176C116.019 51.4021 119.926 50.1135 123.666 48.4492M111.19 52.7454C110.565 50.2148 109.698 47.1521 108.634 43.9396M123.666 48.4492C130.185 45.5479 136.193 41.5049 135.424 37.056C134.818 34.6458 133.9 31.6019 132.73 28.509M123.666 48.4492C122.879 46.5247 122.011 44.2405 121.157 41.7751M132.73 28.509C129.707 20.5181 125.006 12.2003 119.683 13.6401C115.871 14.6714 115.884 21.0472 117.394 28.456M132.73 28.509C142.127 29.9582 156.877 37.0699 142.811 53.9998M72.6519 103.333C73.6331 98.1914 77.9874 91.9959 83.0669 87.113M132.31 86.6918C115.694 87.0402 90.3962 85.3955 83.0669 87.113M132.31 86.6918C133.775 86.0037 135.063 85.6285 137.562 84.7233C138.077 84.537 138.562 84.362 138.998 84.2051M83.0669 87.113C86.2594 84.044 91.7736 79.1792 95.9461 76.3249M95.9461 76.3249C98.3444 74.6842 100.801 73.1605 103.288 71.7384M95.9461 76.3249C98.557 75.683 101.593 75.3626 104.923 75.3178M138.998 84.2051C143.024 82.7543 148.439 81.3926 151.709 81.2692M138.998 84.2051C137.738 83.4236 136.537 82.7261 135.394 82.103M63.7602 116.601C69.5453 118.442 80.1946 119.312 91.8166 117.145C112.341 113.317 134.487 102.933 146.872 94.4662C147.088 94.319 147.298 94.1748 147.504 94.0335M63.7602 116.601C62.8402 118.281 64.4294 121.912 71.1264 125.684M71.1264 125.684C72.869 126.665 75.9113 127.943 78.595 128.893C94.8418 134.647 134.263 121.525 161.423 105.114C162.687 104.35 163.776 103.379 164.691 102.296M71.1264 125.684C70.8531 126.888 70.0328 128.873 70.1047 130.361M164.691 102.296C167.557 98.9045 168.725 94.417 168.267 91.7638C167.887 89.5674 166.337 88.4809 164.367 87.9044C161.719 87.1291 158.692 86.9118 156.235 88.1692C154.96 88.8218 152.97 90.2892 147.504 94.0335M164.691 102.296C168.417 104.095 167.245 108.123 165.085 111.595M70.1047 130.361C61.2927 135.189 47.6215 147.946 57.2713 161.419C59.7621 165.044 65.7716 168.242 69.8837 152.029C71.454 148.567 74.9734 142.254 78.0539 140.822M70.1047 130.361C70.3032 134.47 72.2172 139.064 78.0539 140.822M78.0539 140.822C80.5347 141.57 85.2642 141.539 89.3317 141.007C90.2913 140.882 91.2861 140.747 92.3121 140.601M78.0539 140.822C78.5844 140.575 77.5617 140.74 78.0539 140.822ZM78.0539 140.822C80.763 158.339 93.3791 195.014 122.17 201.574C145.009 206.639 150.445 220.119 152.414 226.539C167.946 277.179 199.759 381.033 202.759 391.329C206.509 404.2 214.924 423.475 236.61 416.572C258.295 409.669 267.065 410.407 253.112 382.626C241.95 360.402 199.759 266.122 180.059 221.76C176.714 214.227 167.997 204.919 177.807 185.198C187.617 165.477 180.953 147.511 165.085 111.595M103.288 71.7384L104.923 75.3178M103.288 71.7384C107.174 69.5167 111.525 67.6005 115.484 65.8206M104.923 75.3178C108.463 75.2701 114.548 75.6176 119.2 76.1603M115.859 65.6518C120.047 63.7657 123.786 62.032 127.783 60.5024C128.155 60.3602 128.525 60.2192 128.894 60.0793M115.859 65.6518C115.734 65.708 115.609 65.7642 115.484 65.8206M115.859 65.6518L115.484 65.8206M151.709 81.2692C154.083 81.1796 156.029 81.1499 157.486 82.3401C158.167 82.896 157.831 84.6547 157.444 85.64C156.758 87.385 156.346 87.9756 147.504 94.0335M151.709 81.2692C149.379 74.2781 144.838 59.2131 142.811 53.9998M142.811 53.9998V53.9998C142.044 54.9222 141.068 55.5737 139.944 55.9903C136.499 57.2662 132.778 58.6072 128.894 60.0793M117.394 28.456C113.817 29.0741 105.987 30.4275 103.277 30.896M117.394 28.456C118.286 32.8314 119.7 37.5671 121.157 41.7751M117.394 28.456L103.277 30.896M103.277 30.896C99.9964 24.6177 96.085 20.0788 91.9983 21.1291C87.8954 22.1835 87.7184 28.0522 89.2351 35.1256M103.277 30.896C105.354 34.8722 107.179 39.546 108.634 43.9396M89.2351 35.1256C85.8943 36.0035 78.1925 38.3861 74.1117 40.894M89.2351 35.1256C90.2054 39.6506 91.8689 44.6686 93.6413 49.2348M74.1117 40.894C70.0051 34.4905 65.5659 30.0796 61.8052 31.7554C57.9329 33.4809 58.9539 40.1869 61.8612 47.9684M74.1117 40.894C76.732 44.9798 79.2168 49.8769 81.3035 54.5217M61.8612 47.9684C58.6111 49.131 51.8294 51.9554 50.7034 53.9526M61.8612 47.9684C63.4335 52.1765 65.5574 56.6992 67.7574 60.9188M50.7034 53.9526C46.0297 47.4733 41.4659 42.8885 38.4836 43.8977C35.2188 45.0026 36.5117 52.2461 39.4552 60.8537M50.7034 53.9526C53.4067 57.7001 56.1467 62.0815 58.6388 66.3808M39.4552 60.8537C40.8509 64.9355 42.8321 70.167 44.6602 74.3531M39.4552 60.8537C32.4783 65.6435 27.5813 73.1974 25.7534 76.7409C25.2141 77.7864 24.448 78.8174 23.5848 79.7832C20.0516 83.7369 14.188 85.0332 10.8374 89.1428C10.0861 90.0642 9.72644 91.0536 10.0958 92.0437C11.0432 94.5838 14.8013 95.7367 21.2981 95.0856C22.8733 94.9278 29.1931 93.6998 34.5519 86.4647C36.979 83.1877 41.0731 77.131 44.6602 74.3531M58.6388 66.3808C60.7073 65.0284 65.4269 62.0426 67.7574 60.9188M81.3035 54.5217C84.0716 53.142 90.4145 50.153 93.6413 49.2348M108.634 43.9396C111.003 43.2297 116.824 41.8031 121.157 41.7751M128.894 60.0793C130.153 65.4746 133.214 77.4327 135.394 82.103M165.085 111.595C164.059 113.245 162.809 114.77 161.757 115.871C159.381 118.739 155.04 121.699 150.968 124.045M92.3121 140.601C95.6549 140.129 99.3289 139.551 103.196 138.861M92.3121 140.601C96.9731 148.939 105.675 160.262 103.196 138.861M103.196 138.861C106.832 138.212 110.638 137.463 114.501 136.61M114.501 136.61C118.545 135.716 122.65 134.706 126.686 133.575M114.501 136.61C119.502 143.973 128.94 153.674 126.686 133.575M126.686 133.575C132.037 132.074 135.839 130.931 140.637 128.985M140.637 128.985C144.202 127.538 148.003 125.753 150.968 124.045M140.637 128.985C145.551 136.826 156.724 145.581 150.968 124.045M135.394 82.103C130.923 79.2708 126.102 77.8509 121.281 76.4311C120.633 76.3365 119.935 76.2459 119.2 76.1603M115.484 65.8206L119.2 76.1603" stroke="#797D84" stroke-width="5"/>
<circle cx="145.943" cy="164.058" r="1.77574" transform="rotate(-9.80637 145.943 164.058)" fill="#50555C" fill-opacity="0.7"/>
<circle cx="159.941" cy="161.638" r="1.77574" transform="rotate(-9.80637 159.941 161.638)" fill="#50555C" fill-opacity="0.7"/>
<path d="M143.106 173.706C147.682 176.251 159.09 178.824 168.114 168.752" stroke="#50555C" stroke-opacity="0.7" stroke-width="3" stroke-linecap="round"/>
</svg>
